<svg xmlns="http://www.w3.org/2000/svg" width="92" height="25" viewBox="0 0 92 25"><g><g><path fill="#3a405b" d="M.285 23.764c.07-.052.18-.14.33-.263.15-.124.326-.352.528-.687.202-.334.427-.818.673-1.452.246-.633.502-1.496.766-2.587a247.076 247.076 0 0 1 1.307-5.095c.272-1.02.55-2.072.831-3.155.282-1.082.555-2.112.819-3.089.264-.977.501-1.861.712-2.653.212-.792.379-1.408.502-1.848-.334.21-.66.449-.977.712-.281.23-.58.489-.897.78-.317.29-.625.594-.924.91a2.198 2.198 0 0 1-.528-.633 2.08 2.08 0 0 1-.185-.344 2.18 2.18 0 0 1-.159-.818c0-.281.22-.572.66-.87.229-.16.577-.388 1.043-.688a11.64 11.64 0 0 1 1.73-.884C7.201.81 8.002.559 8.917.347c.915-.21 1.927-.316 3.036-.316s2.002.22 2.68.66c.677.44 1.196.976 1.557 1.61.36.634.594 1.303.7 2.007.105.704.132 1.32.079 1.847-.106.987-.422 2.017-.95 3.09s-1.259 2.064-2.192 2.97c-.933.906-2.068 1.676-3.405 2.31-1.338.633-2.87.994-4.594 1.082-.141.67-.282 1.356-.422 2.06-.141.703-.29 1.395-.45 2.072a42.41 42.41 0 0 1-.488 1.9c-.167.59-.339 1.096-.514 1.519-.177.457-.405.822-.687 1.096-.282.272-.73.408-1.346.408-.317 0-.612-.079-.885-.237a2.765 2.765 0 0 1-.752-.66zM6.99 9.694c-.194.844-.344 1.522-.45 2.032-.052.282-.118.647-.197 1.096-.08.449-.172.954-.277 1.518.475-.07 1.003-.198 1.584-.383a9.933 9.933 0 0 0 1.742-.752c.58-.318 1.148-.7 1.703-1.149a9.445 9.445 0 0 0 1.518-1.557 8.58 8.58 0 0 0 1.148-2.006 8.73 8.73 0 0 0 .594-2.496c.088-.88.04-1.614-.145-2.204-.185-.59-.453-1.065-.805-1.426a2.976 2.976 0 0 0-1.215-.765 4.401 4.401 0 0 0-1.372-.225c-.44 0-.872.062-1.294.185a9.274 9.274 0 0 0-1.267.475.52.52 0 0 1 .185.132.99.99 0 0 1 .237.449c-.422 1.708-.77 3.133-1.043 4.277a163.036 163.036 0 0 0-.646 2.799zm17.397 6.098a9.184 9.184 0 0 1-.712 1.874c-.3.581-.656 1.083-1.07 1.505a4.67 4.67 0 0 1-1.399.99 4.049 4.049 0 0 1-1.703.357c-.721 0-1.29-.155-1.702-.463a2.842 2.842 0 0 1-.924-1.148 4.61 4.61 0 0 1-.37-1.505 19.239 19.239 0 0 1-.066-1.531c0-.334.04-.704.119-1.108.079-.405.189-.819.33-1.241.14-.423.32-.845.541-1.268.22-.422.48-.81.779-1.162.105-.298.268-.562.488-.791.22-.229.475-.419.766-.568.29-.15.603-.264.937-.343.334-.08.66-.119.977-.119.053 0 .1.009.145.026.044.018.092.036.145.053.229.018.515.105.858.264.343.158.678.397 1.003.713.326.317.603.717.832 1.201.229.484.343 1.07.343 1.756 0 .141-.009.312-.026.515-.018.202-.036.374-.053.515a13.21 13.21 0 0 0 1.267-.58c.44-.23.867-.472 1.28-.728.414-.254.797-.514 1.15-.778.349-.263.63-.5.84-.71a4.742 4.742 0 0 1-.313-.307c-.07-.079-.123-.25-.158-.515-.036-.228.017-.528.158-.897.14-.37.326-.726.555-1.069a4.42 4.42 0 0 1 .765-.885c.282-.246.555-.37.819-.37.492 0 .84.16 1.042.476.203.317.321.643.357.977.035.229.017.52-.053.871-.07.353-.203.67-.396.95.053.036.123.076.211.119.088.044.229.066.423.066.281 0 .479-.017.594-.052.114-.036.294-.053.54-.053.3 0 .546.074.74.224.194.15.352.335.475.555.123.22.216.458.277.712a4.7 4.7 0 0 1 .12.7c.052.44-.063.897-.344 1.373a21.43 21.43 0 0 1-1.03 1.558c-.246.351-.492.748-.739 1.187-.246.44-.352.837-.317 1.189.035.228.097.413.185.554.088.14.334.21.74.21.298 0 .629-.11.99-.329.36-.22.73-.502 1.108-.845a15.35 15.35 0 0 0 1.122-1.135c.37-.413.713-.818 1.03-1.214.317-.397.585-.753.805-1.07.22-.316.383-.545.489-.686a.735.735 0 0 1 .183-.204l.08-.443c.176-.959.374-1.988.594-3.089.22-1.1.453-2.16.7-3.181l-.897.106c-.3.035-.573.052-.819.052a6.267 6.267 0 0 1-1.597-.197c-.502-.133-.875-.26-1.122-.383-.14-.07-.202-.172-.185-.304a.943.943 0 0 1 .158-.396 1.37 1.37 0 0 1 .33-.343c.132-.097.251-.145.357-.145.334.035.695.066 1.082.092a11.868 11.868 0 0 0 2.231-.066c.308-.035.611-.079.911-.132.228-.845.453-1.58.673-2.204.22-.625.418-1.06.594-1.308.053-.087.172-.162.357-.224.184-.061.382-.105.594-.132.21-.026.413-.026.607 0 .193.027.334.093.422.198.088.141.123.502.106 1.083-.018.58-.115 1.32-.29 2.217.739 0 1.394.04 1.966.12.572.078 1.06.166 1.465.264.405.096.73.193.977.29.165.064.302.116.412.153.096-.421.17-.75.222-.985.053-.334.096-.66.132-.977.035-.281.053-.571.053-.871 0-.299-.027-.572-.08-.819.141-.087.295-.158.462-.21.168-.053.33-.097.489-.132.193-.054.387-.097.58-.133.194-.034.37-.052.529-.052.14 0 .272.013.396.04.123.025.202.083.237.17.106.09.154.265.146.529a9.17 9.17 0 0 1-.066.818c-.071.335-.15.696-.238 1.083-.211.756-.502 1.848-.871 3.273-.317 1.215-.744 2.87-1.28 4.963-.538 2.095-1.211 4.735-2.02 7.92a.733.733 0 0 1-.317.185 1.281 1.281 0 0 1-.343.053c-.124 0-.256-.01-.396-.026a1.682 1.682 0 0 1-.37-.158 1.776 1.776 0 0 1-.317-.278 1.09 1.09 0 0 1-.237-.462l.694-2.922a24.005 24.005 0 0 1-1.38 1.615 13.59 13.59 0 0 1-1.849 1.677c-.598.44-1.1.66-1.505.66-.58 0-1.065-.115-1.452-.343a2.73 2.73 0 0 1-.91-.845c-.22-.334-.375-.7-.463-1.096a3.397 3.397 0 0 1-.079-1.096c.017-.264.072-.729.167-1.391a26.823 26.823 0 0 1-1.777 2.25c-.44.501-.902.96-1.386 1.372a8.555 8.555 0 0 1-1.452 1.017c-.484.264-.946.396-1.386.396-.458 0-.836-.089-1.135-.264a2.364 2.364 0 0 1-1.122-1.492 2.717 2.717 0 0 1-.093-.858c.018-.211.075-.436.172-.673.096-.238.211-.484.343-.74.132-.254.273-.51.422-.765.15-.255.286-.506.41-.752.299-.51.54-.946.726-1.307.184-.36.277-.664.277-.911a.841.841 0 0 0-.106-.422c-.07-.123-.185-.185-.343-.185-.106 0-.18.005-.224.013a.65.65 0 0 1-.132.014c-.045 0-.106.004-.185.013a3.64 3.64 0 0 1-.357.013c-.228 0-.422-.035-.58-.106a2.85 2.85 0 0 0-.45-.158c-.07.123-.228.387-.474.792-.247.405-.533.88-.858 1.425a481.72 481.72 0 0 1-2.046 3.393c-.317.52-.585.96-.806 1.32-.22.36-.356.577-.409.647-.123.193-.26.32-.41.382-.148.062-.28.07-.395.027-.114-.045-.189-.137-.224-.277-.036-.14 0-.317.105-.528l.356-.713c.185-.37.406-.814.66-1.333l.832-1.69a302.983 302.983 0 0 1 1.134-2.276c-.19.15-.392.307-.606.467-.493.37-1.03.73-1.61 1.083a8.269 8.269 0 0 1-1.664.792zM48.73 6.869a4.311 4.311 0 0 1-.594-.106 7.03 7.03 0 0 0-.792-.132c-.308-.035-.674-.07-1.096-.106a18.074 18.074 0 0 0-1.478-.052 5.32 5.32 0 0 0-.357.013 5.94 5.94 0 0 1-.409.013c-.07.282-.137.559-.198.831-.062.274-.145.56-.25.859a74.85 74.85 0 0 1-.793 2.296 102.801 102.801 0 0 1-2.191 5.465c-.106.757-.092 1.333.04 1.73.132.395.294.682.488.858.229.194.51.3.845.316.264.036.585-.056.963-.277.379-.22.77-.514 1.175-.884s.814-.775 1.228-1.215c.413-.44.796-.87 1.148-1.293.283-.34.537-.653.763-.942l.597-2.517c.466-1.97.822-3.476 1.07-4.514l.077-.34a.605.605 0 0 1-.236-.003zm-28.803 4.91c-.053.158-.08.326-.08.502 0 .281.018.576.053.884.036.308.123.585.264.832.141.246.365.453.674.62.307.167.734.251 1.28.251a2.56 2.56 0 0 0 .528-.053l.145-.62c.044-.185.066-.348.066-.489a5.055 5.055 0 0 0 0-1.03 4.47 4.47 0 0 0-.198-.963 2.27 2.27 0 0 0-.37-.712c-.15-.186-.33-.278-.54-.278-.335 0-.656.092-.964.278a3.21 3.21 0 0 0-.858.778zm-1.69 4.647c0 .316.018.629.053.937.035.308.106.58.211.818.106.238.246.432.423.581.175.15.404.224.686.224.317 0 .607-.074.871-.224.264-.15.502-.343.713-.58.211-.238.4-.511.568-.82.167-.307.312-.628.435-.963a5.15 5.15 0 0 1-.739.053c-.669 0-1.245-.198-1.73-.594a3.913 3.913 0 0 1-1.121-1.518c-.106.37-.194.73-.264 1.082-.07.353-.106.687-.106 1.004zM63.66 17.6c-.414.52-.818.995-1.214 1.426-.396.431-.726.735-.99.911a2.766 2.766 0 0 1-.608.264c-.229.07-.462.114-.7.131a2.437 2.437 0 0 1-.672-.039 1.565 1.565 0 0 1-.555-.224 1.39 1.39 0 0 1-.396-.528 4.569 4.569 0 0 1-.25-.766c-.08-.317-.11-.712-.093-1.188-.422.704-.889 1.246-1.4 1.624-.51.378-.994.655-1.451.831a5.7 5.7 0 0 1-1.584.344c-.247 0-.51-.084-.792-.25-.282-.168-.52-.432-.713-.793-.194-.361-.317-.827-.37-1.4-.053-.571.018-1.253.212-2.045a9.778 9.778 0 0 1 1.174-2.93c.537-.88 1.122-1.633 1.756-2.258.634-.624 1.258-1.096 1.874-1.412.616-.318 1.127-.458 1.532-.423.475.088.862.23 1.161.423.247.176.41.435.489.778.079.344-.066.797-.436 1.36.246-.053.453-.088.62-.106.167-.017.295-.026.383-.026a.56.56 0 0 1 .211.026c.018.036.027.11.027.225 0 .114-.027.321-.08.62-.052.3-.131.704-.237 1.214-.106.51-.247 1.171-.422 1.98a19.72 19.72 0 0 0-.093.436l-.079.396-.092.462-.132.66a3.21 3.21 0 0 0-.014.515c.009.185.04.357.093.515a.827.827 0 0 0 .25.382c.115.098.278.146.489.146.176 0 .405-.11.686-.33.282-.22.581-.502.898-.845.317-.343.647-.721.99-1.135.343-.414.664-.814.964-1.201a98.135 98.135 0 0 1 .91-1.163l.12-.553a70.167 70.167 0 0 1 .792-3.326c.122-.107.25-.19.382-.252.132-.061.268-.11.41-.145.14-.053.29-.088.448-.105.14 0 .281.009.423.026.122.018.25.048.382.093.132.043.251.11.357.198a5.972 5.972 0 0 0-.185.514c-.07.22-.141.453-.211.7-.07.282-.159.572-.264.871.228-.317.488-.638.779-.964.29-.326.607-.62.95-.884.343-.264.708-.48 1.096-.647.386-.167.783-.25 1.188-.25.334 0 .633.096.897.29.264.194.47.462.62.805.15.343.238.752.265 1.227.026.476-.04.995-.198 1.558l-.29 1.161c-.09.37-.199.806-.33 1.308a31.303 31.303 0 0 1-.49 1.65c-.105.387-.144.721-.118 1.003.026.282.198.422.515.422s.717-.193 1.201-.58c.484-.388.972-.854 1.465-1.4.416-.46.813-.93 1.191-1.409a9.195 9.195 0 0 1 .472-1.706c.352-.915.797-1.712 1.334-2.39a6.531 6.531 0 0 1 1.821-1.61c.678-.396 1.36-.594 2.046-.594.3 0 .572.075.819.225.246.15.457.343.633.58.176.238.321.498.436.78.114.28.198.545.25.791.124-.51.238-1.011.344-1.505.106-.492.211-.959.317-1.399.176-.65.36-1.355.554-2.111l.607-2.245a96.34 96.34 0 0 1 .766-2.667 2.34 2.34 0 0 1 .95-.474c.159-.053.308-.08.45-.08.175 0 .333.023.474.066.141.045.26.159.357.343.096.185.162.462.198.832.035.37.035.871 0 1.505-.036.774-.172 1.62-.41 2.535-.237.915-.55 1.86-.937 2.838a33.238 33.238 0 0 1-1.333 2.93 29.571 29.571 0 0 1-1.623 2.785c-.089.546-.172 1.065-.251 1.558-.08.493-.128.888-.145 1.188-.018.44.061.757.237.95.176.194.37.29.581.29.246 0 .55-.123.91-.37.361-.245.744-.554 1.15-.923.404-.37.809-.774 1.214-1.214.404-.44.778-.858 1.122-1.255.343-.395.633-.743.87-1.042.238-.3.401-.493.49-.58a.603.603 0 0 1 .33-.186c.114-.017.206 0 .276.053.07.053.106.15.106.29 0 .141-.07.317-.211.528-.211.335-.484.726-.819 1.175-.334.449-.704.911-1.108 1.386-.405.476-.832.942-1.28 1.4-.45.458-.898.862-1.347 1.214-.449.352-.88.637-1.294.858-.414.22-.788.33-1.122.33-.247 0-.48-.07-.7-.211a2.352 2.352 0 0 1-.593-.555 2.653 2.653 0 0 1-.41-.765 2.154 2.154 0 0 1-.118-.845c.017-.123.043-.334.079-.634-.74.827-1.483 1.483-2.231 1.967-.748.484-1.465.726-2.152.726-.246 0-.51-.062-.792-.185a1.95 1.95 0 0 1-.752-.607c-.22-.281-.4-.65-.541-1.11a4.03 4.03 0 0 1-.16-.962c-.187.227-.38.456-.58.686-.405.466-.827.889-1.267 1.267-.44.379-.875.686-1.307.924-.431.238-.84.356-1.227.356-.405 0-.753-.074-1.043-.224a1.924 1.924 0 0 1-.7-.594 2.002 2.002 0 0 1-.343-.858 2.645 2.645 0 0 1 .053-1.043c.053-.246.14-.576.264-.99.123-.413.25-.862.383-1.346.132-.484.255-.968.37-1.452.114-.484.188-.924.224-1.32.035-.396.017-.722-.053-.977s-.22-.383-.449-.383c-.282 0-.572.093-.871.277-.3.186-.603.436-.91.753-.309.317-.617.682-.925 1.096-.308.413-.612.84-.91 1.28a59.468 59.468 0 0 0-.674 2.785c-.08.361-.154.678-.224.95-.07.273-.132.533-.185.78-.053.176-.211.347-.475.514a4.183 4.183 0 0 1-.845.41c-.3.105-.559.158-.779.158-.22 0-.312-.08-.277-.238.018-.106.075-.343.171-.713l.344-1.306c.132-.502.268-1.035.409-1.598 0-.004.002-.008.003-.011-.255.334-.516.668-.782 1.001zm-5.584-1.702c.088-.353.194-.766.317-1.241a25.502 25.502 0 0 0 .515-2.469c.044-.29.03-.426-.04-.409a2.43 2.43 0 0 0-.29.08 1.38 1.38 0 0 1-.343.078 3.594 3.594 0 0 0-.423.08c.141-.282.225-.515.251-.7.027-.185.03-.33.013-.435a.63.63 0 0 0-.105-.29c-.194-.16-.533-.031-1.017.382-.484.414-1.042 1.174-1.676 2.284a7.032 7.032 0 0 0-.634 1.465 9.268 9.268 0 0 0-.33 1.465 5.137 5.137 0 0 0-.04 1.2c.036.345.106.568.212.675a.863.863 0 0 0 .66.277c.246-.009.497-.08.752-.212s.51-.303.766-.514a6.553 6.553 0 0 0 1.188-1.294c.132-.193.207-.334.224-.422zm25.292-.608c.07-.334.136-.668.198-1.003.061-.334.136-.677.224-1.03a.915.915 0 0 0-.092.053.837.837 0 0 1-.092.053c-.194.088-.326.084-.396-.013-.071-.097-.106-.251-.106-.462 0-.106-.01-.295-.026-.568a4.262 4.262 0 0 0-.146-.845 2.363 2.363 0 0 0-.356-.765.767.767 0 0 0-.66-.33c-.405 0-.818.207-1.24.62a8.164 8.164 0 0 0-1.189 1.505c-.37.59-.678 1.22-.924 1.888-.247.67-.387 1.267-.422 1.795-.036.844.07 1.452.317 1.821.246.37.58.555 1.003.555.317 0 .664-.123 1.043-.37a7.3 7.3 0 0 0 1.108-.897c.36-.352.695-.713 1.004-1.082.307-.37.558-.678.752-.925z"/></g></g></svg>